<?xml version="1.0"?>
<svg xmlns="http://www.w3.org/2000/svg" xmlns:xlink="http://www.w3.org/1999/xlink" version="1.1" id="Layer_1" x="0px" y="0px" viewBox="0 0 480 480" style="enable-background:new 0 0 480 480;" xml:space="preserve" width="512px" height="512px"><g><g id="XMLID_1853_">
	<g>
		<g>
			<path d="M120,240c0-31.124,11.864-60.628,33.408-83.077c3.823-3.984,3.693-10.315-0.292-14.139     c-3.985-3.824-10.315-3.694-14.139,0.292C113.842,169.267,100,203.688,100,240s13.842,70.733,38.976,96.925     c1.964,2.046,4.588,3.076,7.217,3.076c2.489,0,4.984-0.925,6.922-2.785c3.985-3.824,4.116-10.155,0.292-14.139     C131.864,300.628,120,271.124,120,240z" data-original="#000000" class="active-path" data-old_color="#000000" fill="#F4E697"/>
			<path d="M70,240c0-46.794,18.616-90.398,52.418-122.779c3.988-3.82,4.125-10.15,0.304-14.139     c-3.82-3.988-10.15-4.125-14.139-0.304C70.805,138.967,50,187.7,50,240c0,49.217,18.744,95.889,52.78,131.418     c1.964,2.05,4.591,3.083,7.223,3.083c2.487,0,4.979-0.922,6.916-2.779c3.988-3.82,4.125-10.15,0.304-14.139     C86.771,325.794,70,284.036,70,240z" data-original="#000000" class="active-path" data-old_color="#000000" fill="#F4E697"/>
			<path d="M240,200c-22.056,0-40,17.944-40,40c0,22.056,17.944,40,40,40c22.056,0,40-17.944,40-40C280,217.944,262.056,200,240,200     z M240,260c-11.028,0-20-8.972-20-20s8.972-20,20-20s20,8.972,20,20S251.028,260,240,260z" data-original="#000000" class="active-path" data-old_color="#000000" fill="#F4E697"/>
			<path d="M463.106,86.455C473.843,77.508,480,64.361,480,50.385C480,22.603,457.397,0,429.615,0     C416.66,0,404.258,5.092,395,13.809C385.742,5.092,373.34,0,360.385,0c-14.137,0-26.933,5.853-36.092,15.262     c-0.264-0.125-0.536-0.239-0.814-0.343C296.795,5.02,268.709,0,240,0C175.894,0,115.624,24.963,70.294,70.294S0,175.894,0,240     s24.963,124.376,70.294,169.706S175.894,480,240,480s124.376-24.963,169.706-70.294S480,304.106,480,240     c0-47.942-14.059-94.128-40.679-133.725L463.106,86.455z M360.385,20c10.752,0,20.49,5.51,26.05,14.738     c1.808,3.004,5.06,4.84,8.565,4.84s6.756-1.837,8.565-4.84C409.125,25.51,418.863,20,429.615,20C446.369,20,460,33.63,460,50.385     c0,8.023-3.535,15.57-9.697,20.706l-51.504,42.918c-2.129,1.774-5.468,1.774-7.599,0l-51.502-42.918     C333.535,65.955,330,58.408,330,50.385C330,33.63,343.631,20,360.385,20z M460,240c0,121.309-98.691,220-220,220     S20,361.309,20,240S118.691,20,240,20c25.166,0,49.8,4.202,73.28,12.496c-2.119,5.562-3.28,11.593-3.28,17.889     c0,13.975,6.157,27.123,16.893,36.071l51.502,42.918c4.652,3.876,10.548,6.011,16.604,6.011c6.056,0,11.953-2.135,16.603-6.011     l12.266-10.221C447.521,155.054,460,196.743,460,240z" data-original="#000000" class="active-path" data-old_color="#000000" fill="#F4E697"/>
			<path d="M345.772,150.768c-7.577,0-14.874,2.562-20.77,7.052c-5.896-4.489-13.194-7.052-20.77-7.052     c-8.952,0-17.114,3.455-23.219,9.101c-12.634-6.469-26.718-9.87-41.012-9.87c-49.626,0-90,40.374-90,90c0,49.626,40.374,90,90,90     c49.626,0,90-40.374,90-90c0-0.217-0.001-0.434-0.002-0.651c2.742-0.726,5.318-2.044,7.525-3.882l30.901-25.751     C375.781,203.584,380,194.576,380,185C380,166.125,364.645,150.769,345.772,150.768z M240,310c-38.598,0-70-31.402-70-70     c0-38.598,31.402-70,70-70c10.75,0,21.342,2.469,30.902,7.173C270.313,179.687,270,182.308,270,185     c0,9.576,4.219,18.584,11.575,24.715l28.092,23.41c0.222,2.274,0.333,4.579,0.333,6.875C310,278.598,278.599,310,240,310z      M355.62,194.35L325,219.868l-30.618-25.517c-2.783-2.32-4.38-5.728-4.38-9.351c0-7.847,6.383-14.231,14.23-14.231     c5.036,0,9.599,2.582,12.203,6.907c1.809,3.004,5.06,4.84,8.566,4.84c3.506,0,6.756-1.836,8.566-4.84     c2.604-4.325,7.167-6.907,12.203-6.907c7.846,0,14.23,6.384,14.23,14.231C360,188.623,358.403,192.031,355.62,194.35z" data-original="#000000" class="active-path" data-old_color="#000000" fill="#F4E697"/>
		</g>
	</g>
</g></g> </svg>
